<mxfile host="Electron" agent="Mozilla/5.0 (Windows NT 10.0; Win64; x64) AppleWebKit/537.36 (KHTML, like Gecko) draw.io/25.0.2 Chrome/128.0.6613.186 Electron/32.2.5 Safari/537.36" version="25.0.2">
  <diagram name="Page-1" id="VDrcqC-qImlhREa_X8av">
    <mxGraphModel dx="1434" dy="956" grid="1" gridSize="10" guides="1" tooltips="1" connect="1" arrows="1" fold="1" page="1" pageScale="1" pageWidth="1169" pageHeight="827" math="0" shadow="0">
      <root>
        <mxCell id="0" />
        <mxCell id="1" parent="0" />
        <mxCell id="aofLy9jKP6S8HGss7yMc-104" value="&lt;h1&gt;Application&lt;/h1&gt;" style="rounded=1;whiteSpace=wrap;html=1;fillColor=#EBEBEB;verticalAlign=top;glass=0;shadow=0;perimeterSpacing=0;arcSize=6;" parent="1" vertex="1">
          <mxGeometry x="1250" y="377" width="340" height="370" as="geometry" />
        </mxCell>
        <mxCell id="aofLy9jKP6S8HGss7yMc-97" value="&lt;h1&gt;Battery Pack&lt;/h1&gt;" style="rounded=1;whiteSpace=wrap;html=1;fillColor=#EBEBEB;verticalAlign=top;glass=0;shadow=0;perimeterSpacing=0;arcSize=6;" parent="1" vertex="1">
          <mxGeometry x="850" y="377" width="360" height="370" as="geometry" />
        </mxCell>
        <mxCell id="aofLy9jKP6S8HGss7yMc-94" value="&lt;h1&gt;Battery Pack&lt;/h1&gt;" style="rounded=1;whiteSpace=wrap;html=1;fillColor=#EBEBEB;verticalAlign=top;glass=0;shadow=0;perimeterSpacing=0;arcSize=6;" parent="1" vertex="1">
          <mxGeometry x="3" y="380" width="837" height="370" as="geometry" />
        </mxCell>
        <mxCell id="aofLy9jKP6S8HGss7yMc-71" value="" style="endArrow=none;html=1;rounded=0;entryX=0.5;entryY=0;entryDx=0;entryDy=0;exitX=1;exitY=0.75;exitDx=0;exitDy=0;edgeStyle=orthogonalEdgeStyle;fillColor=#fad9d5;strokeColor=#ae4132;strokeWidth=2;dashed=1;dashPattern=1 1;" parent="1" source="aofLy9jKP6S8HGss7yMc-8" target="aofLy9jKP6S8HGss7yMc-57" edge="1">
          <mxGeometry width="50" height="50" relative="1" as="geometry">
            <mxPoint x="910" y="640" as="sourcePoint" />
            <mxPoint x="960" y="590" as="targetPoint" />
          </mxGeometry>
        </mxCell>
        <mxCell id="aofLy9jKP6S8HGss7yMc-29" value="" style="endArrow=none;html=1;rounded=0;exitX=1;exitY=0.5;exitDx=0;exitDy=0;entryX=0;entryY=0.5;entryDx=0;entryDy=0;entryPerimeter=0;strokeWidth=2;jumpStyle=none;" parent="1" source="MFnoaFZUkDLFj2D9QCYs-68" target="aofLy9jKP6S8HGss7yMc-25" edge="1">
          <mxGeometry width="50" height="50" relative="1" as="geometry">
            <mxPoint x="710" y="570" as="sourcePoint" />
            <mxPoint x="760" y="520" as="targetPoint" />
          </mxGeometry>
        </mxCell>
        <mxCell id="aofLy9jKP6S8HGss7yMc-76" value="" style="endArrow=none;html=1;rounded=0;entryX=1;entryY=0.75;entryDx=0;entryDy=0;edgeStyle=orthogonalEdgeStyle;fillColor=#d0cee2;strokeColor=#56517e;strokeWidth=2;" parent="1" target="aofLy9jKP6S8HGss7yMc-2" edge="1">
          <mxGeometry width="50" height="50" relative="1" as="geometry">
            <mxPoint x="820" y="640" as="sourcePoint" />
            <mxPoint x="764" y="690" as="targetPoint" />
            <Array as="points">
              <mxPoint x="820" y="685" />
            </Array>
          </mxGeometry>
        </mxCell>
        <mxCell id="MFnoaFZUkDLFj2D9QCYs-4" value="" style="endArrow=none;html=1;rounded=0;entryX=0;entryY=0.5;entryDx=0;entryDy=0;exitX=1;exitY=0.5;exitDx=0;exitDy=0;strokeWidth=2;strokeColor=#0000FF;" parent="1" source="MFnoaFZUkDLFj2D9QCYs-43" target="MFnoaFZUkDLFj2D9QCYs-7" edge="1">
          <mxGeometry width="50" height="50" relative="1" as="geometry">
            <mxPoint x="141" y="350" as="sourcePoint" />
            <mxPoint x="191" y="300" as="targetPoint" />
          </mxGeometry>
        </mxCell>
        <mxCell id="MFnoaFZUkDLFj2D9QCYs-6" value="" style="group;rotation=0;flipH=0;fontSize=12;" parent="1" vertex="1" connectable="0">
          <mxGeometry x="408" y="450" width="130" height="60" as="geometry" />
        </mxCell>
        <mxCell id="MFnoaFZUkDLFj2D9QCYs-7" value="&amp;nbsp; BMS-Slave&lt;div style=&quot;font-size: 12px;&quot;&gt;&lt;font style=&quot;font-size: 13px;&quot;&gt;&amp;nbsp; &amp;nbsp; (U, T, X)&lt;/font&gt;&lt;/div&gt;" style="rounded=1;whiteSpace=wrap;html=1;rotation=0;align=left;fillColor=#d5e8d4;strokeColor=#82b366;fontSize=13;flipV=0;flipH=1;" parent="MFnoaFZUkDLFj2D9QCYs-6" vertex="1">
          <mxGeometry width="130" height="60" as="geometry" />
        </mxCell>
        <mxCell id="MFnoaFZUkDLFj2D9QCYs-8" value="" style="pointerEvents=1;shadow=0;dashed=0;html=1;strokeColor=none;fillColor=#000000;labelPosition=center;verticalLabelPosition=bottom;verticalAlign=top;align=center;outlineConnect=0;shape=mxgraph.veeam.cpu;rotation=0;" parent="MFnoaFZUkDLFj2D9QCYs-6" vertex="1">
          <mxGeometry x="80" y="8" width="44.8" height="44.8" as="geometry" />
        </mxCell>
        <mxCell id="MFnoaFZUkDLFj2D9QCYs-12" value="" style="rounded=0;whiteSpace=wrap;html=1;fillColor=none;strokeColor=none;flipH=0;rotation=90;" parent="1" vertex="1">
          <mxGeometry x="193" y="455" width="10" height="50" as="geometry" />
        </mxCell>
        <mxCell id="MFnoaFZUkDLFj2D9QCYs-13" value="" style="endArrow=none;html=1;rounded=0;exitX=1;exitY=0.5;exitDx=0;exitDy=0;entryX=0.5;entryY=1;entryDx=0;entryDy=0;strokeWidth=2;strokeColor=#0000FF;" parent="1" source="MFnoaFZUkDLFj2D9QCYs-46" target="MFnoaFZUkDLFj2D9QCYs-12" edge="1">
          <mxGeometry width="50" height="50" relative="1" as="geometry">
            <mxPoint x="81" y="410" as="sourcePoint" />
            <mxPoint x="126" y="410" as="targetPoint" />
          </mxGeometry>
        </mxCell>
        <mxCell id="MFnoaFZUkDLFj2D9QCYs-14" value="" style="endArrow=none;html=1;rounded=0;entryX=0;entryY=0.5;entryDx=0;entryDy=0;exitX=0.5;exitY=0;exitDx=0;exitDy=0;strokeWidth=2;strokeColor=#0000FF;" parent="1" source="MFnoaFZUkDLFj2D9QCYs-12" target="MFnoaFZUkDLFj2D9QCYs-43" edge="1">
          <mxGeometry width="50" height="50" relative="1" as="geometry">
            <mxPoint x="71" y="440" as="sourcePoint" />
            <mxPoint x="121" y="390" as="targetPoint" />
          </mxGeometry>
        </mxCell>
        <mxCell id="MFnoaFZUkDLFj2D9QCYs-15" value="" style="endArrow=none;dashed=1;html=1;dashPattern=1 3;strokeWidth=2;rounded=0;entryX=0.5;entryY=0;entryDx=0;entryDy=0;exitX=0.5;exitY=1;exitDx=0;exitDy=0;strokeColor=#0000FF;" parent="1" source="MFnoaFZUkDLFj2D9QCYs-12" target="MFnoaFZUkDLFj2D9QCYs-12" edge="1">
          <mxGeometry width="50" height="50" relative="1" as="geometry">
            <mxPoint x="101" y="520" as="sourcePoint" />
            <mxPoint x="151" y="470" as="targetPoint" />
          </mxGeometry>
        </mxCell>
        <mxCell id="MFnoaFZUkDLFj2D9QCYs-16" value="Sense wires" style="edgeStyle=orthogonalEdgeStyle;rounded=0;orthogonalLoop=1;jettySize=auto;html=1;entryX=0;entryY=0.5;entryDx=0;entryDy=0;verticalAlign=middle;labelBackgroundColor=none;" parent="1" source="MFnoaFZUkDLFj2D9QCYs-7" target="MFnoaFZUkDLFj2D9QCYs-59" edge="1">
          <mxGeometry x="-0.0016" relative="1" as="geometry">
            <mxPoint x="473.0000000000001" y="564" as="targetPoint" />
            <mxPoint as="offset" />
          </mxGeometry>
        </mxCell>
        <mxCell id="MFnoaFZUkDLFj2D9QCYs-17" value="Sense wires" style="edgeStyle=orthogonalEdgeStyle;rounded=0;orthogonalLoop=1;jettySize=auto;html=1;exitX=0.5;exitY=1;exitDx=0;exitDy=0;entryX=0;entryY=0.5;entryDx=0;entryDy=0;verticalAlign=middle;labelBackgroundColor=none;" parent="1" source="MFnoaFZUkDLFj2D9QCYs-43" target="MFnoaFZUkDLFj2D9QCYs-29" edge="1">
          <mxGeometry x="-0.0046" relative="1" as="geometry">
            <mxPoint x="212" y="280" as="targetPoint" />
            <mxPoint as="offset" />
          </mxGeometry>
        </mxCell>
        <mxCell id="MFnoaFZUkDLFj2D9QCYs-18" value="Sense wires" style="edgeStyle=orthogonalEdgeStyle;rounded=0;orthogonalLoop=1;jettySize=auto;html=1;exitX=0.5;exitY=1;exitDx=0;exitDy=0;entryX=0;entryY=0.5;entryDx=0;entryDy=0;verticalAlign=middle;labelBackgroundColor=none;" parent="1" source="MFnoaFZUkDLFj2D9QCYs-46" target="MFnoaFZUkDLFj2D9QCYs-23" edge="1">
          <mxGeometry relative="1" as="geometry">
            <mxPoint x="212.9999999999999" y="480" as="targetPoint" />
          </mxGeometry>
        </mxCell>
        <mxCell id="MFnoaFZUkDLFj2D9QCYs-22" value="" style="group;flipH=1;rotation=90;" parent="1" vertex="1" connectable="0">
          <mxGeometry x="74" y="520" width="49.00000000000001" height="132.5" as="geometry" />
        </mxCell>
        <mxCell id="MFnoaFZUkDLFj2D9QCYs-23" value="" style="rounded=1;whiteSpace=wrap;html=1;fillColor=#fff2cc;strokeColor=#d6b656;flipV=0;rotation=90;" parent="MFnoaFZUkDLFj2D9QCYs-22" vertex="1">
          <mxGeometry y="0.5" width="44" height="132" as="geometry" />
        </mxCell>
        <mxCell id="MFnoaFZUkDLFj2D9QCYs-24" value="" style="verticalLabelPosition=bottom;shadow=0;dashed=0;align=center;fillColor=strokeColor;html=1;verticalAlign=top;strokeWidth=2;shape=mxgraph.electrical.miscellaneous.monocell_battery;rotation=0;flipV=1;" parent="MFnoaFZUkDLFj2D9QCYs-22" vertex="1">
          <mxGeometry x="27" y="50" width="55.00000000000001" height="33" as="geometry" />
        </mxCell>
        <mxCell id="MFnoaFZUkDLFj2D9QCYs-25" value="" style="verticalLabelPosition=bottom;shadow=0;dashed=0;align=center;fillColor=strokeColor;html=1;verticalAlign=top;strokeWidth=2;shape=mxgraph.electrical.miscellaneous.monocell_battery;rotation=0;flipV=0;" parent="MFnoaFZUkDLFj2D9QCYs-22" vertex="1">
          <mxGeometry x="-6" y="50" width="55.00000000000001" height="33" as="geometry" />
        </mxCell>
        <mxCell id="MFnoaFZUkDLFj2D9QCYs-26" value="" style="verticalLabelPosition=bottom;shadow=0;dashed=0;align=center;fillColor=strokeColor;html=1;verticalAlign=top;strokeWidth=2;shape=mxgraph.electrical.miscellaneous.monocell_battery;rotation=0;flipV=1;" parent="MFnoaFZUkDLFj2D9QCYs-22" vertex="1">
          <mxGeometry x="-38" y="50" width="55.00000000000001" height="33" as="geometry" />
        </mxCell>
        <mxCell id="aofLy9jKP6S8HGss7yMc-65" value="" style="endArrow=none;html=1;rounded=0;exitX=0.5;exitY=1;exitDx=0;exitDy=0;entryX=0;entryY=0.5;entryDx=0;entryDy=0;entryPerimeter=0;strokeWidth=2;" parent="MFnoaFZUkDLFj2D9QCYs-22" source="MFnoaFZUkDLFj2D9QCYs-23" target="MFnoaFZUkDLFj2D9QCYs-26" edge="1">
          <mxGeometry width="50" height="50" relative="1" as="geometry">
            <mxPoint x="-24" y="100" as="sourcePoint" />
            <mxPoint x="26" y="50" as="targetPoint" />
          </mxGeometry>
        </mxCell>
        <mxCell id="MFnoaFZUkDLFj2D9QCYs-28" value="" style="group;aspect=fixed;flipH=1;rotation=90;" parent="1" vertex="1" connectable="0">
          <mxGeometry x="281" y="520" width="44" height="132" as="geometry" />
        </mxCell>
        <mxCell id="MFnoaFZUkDLFj2D9QCYs-29" value="" style="rounded=1;whiteSpace=wrap;html=1;fillColor=#fff2cc;strokeColor=#d6b656;flipV=1;rotation=90;" parent="MFnoaFZUkDLFj2D9QCYs-28" vertex="1">
          <mxGeometry width="44" height="132" as="geometry" />
        </mxCell>
        <mxCell id="MFnoaFZUkDLFj2D9QCYs-30" value="" style="verticalLabelPosition=bottom;shadow=0;dashed=0;align=center;fillColor=strokeColor;html=1;verticalAlign=top;strokeWidth=2;shape=mxgraph.electrical.miscellaneous.monocell_battery;rotation=0;flipV=1;" parent="MFnoaFZUkDLFj2D9QCYs-28" vertex="1">
          <mxGeometry x="27" y="50" width="55.00000000000001" height="33" as="geometry" />
        </mxCell>
        <mxCell id="MFnoaFZUkDLFj2D9QCYs-31" value="" style="verticalLabelPosition=bottom;shadow=0;dashed=0;align=center;fillColor=strokeColor;html=1;verticalAlign=top;strokeWidth=2;shape=mxgraph.electrical.miscellaneous.monocell_battery;rotation=0;flipV=1;" parent="MFnoaFZUkDLFj2D9QCYs-28" vertex="1">
          <mxGeometry x="-6" y="50" width="55.00000000000001" height="33" as="geometry" />
        </mxCell>
        <mxCell id="MFnoaFZUkDLFj2D9QCYs-32" value="" style="verticalLabelPosition=bottom;shadow=0;dashed=0;align=center;fillColor=strokeColor;html=1;verticalAlign=top;strokeWidth=2;shape=mxgraph.electrical.miscellaneous.monocell_battery;rotation=0;flipV=1;" parent="MFnoaFZUkDLFj2D9QCYs-28" vertex="1">
          <mxGeometry x="-38" y="50" width="55.00000000000001" height="33" as="geometry" />
        </mxCell>
        <mxCell id="MFnoaFZUkDLFj2D9QCYs-41" value="" style="endArrow=none;html=1;rounded=0;entryX=0;entryY=0.5;entryDx=0;entryDy=0;edgeStyle=orthogonalEdgeStyle;exitX=0.5;exitY=1;exitDx=0;exitDy=0;strokeWidth=2;" parent="1" source="MFnoaFZUkDLFj2D9QCYs-23" target="MFnoaFZUkDLFj2D9QCYs-54" edge="1">
          <mxGeometry width="50" height="50" relative="1" as="geometry">
            <mxPoint x="268" y="560" as="sourcePoint" />
            <mxPoint x="378" y="253" as="targetPoint" />
          </mxGeometry>
        </mxCell>
        <mxCell id="MFnoaFZUkDLFj2D9QCYs-42" value="" style="group;rotation=0;flipH=0;" parent="1" vertex="1" connectable="0">
          <mxGeometry x="238" y="450" width="130" height="60" as="geometry" />
        </mxCell>
        <mxCell id="MFnoaFZUkDLFj2D9QCYs-43" value="&lt;font style=&quot;font-size: 13px;&quot;&gt;&amp;nbsp; BMS-Slave&lt;/font&gt;&lt;div&gt;&lt;font style=&quot;font-size: 13px;&quot;&gt;&amp;nbsp; &amp;nbsp; (U, T, X)&lt;/font&gt;&lt;/div&gt;" style="rounded=1;whiteSpace=wrap;html=1;rotation=0;align=left;fillColor=#d5e8d4;strokeColor=#82b366;" parent="MFnoaFZUkDLFj2D9QCYs-42" vertex="1">
          <mxGeometry width="130" height="60" as="geometry" />
        </mxCell>
        <mxCell id="MFnoaFZUkDLFj2D9QCYs-44" value="" style="pointerEvents=1;shadow=0;dashed=0;html=1;strokeColor=none;fillColor=#000000;labelPosition=center;verticalLabelPosition=bottom;verticalAlign=top;align=center;outlineConnect=0;shape=mxgraph.veeam.cpu;rotation=0;" parent="MFnoaFZUkDLFj2D9QCYs-42" vertex="1">
          <mxGeometry x="80" y="8" width="44.8" height="44.8" as="geometry" />
        </mxCell>
        <mxCell id="MFnoaFZUkDLFj2D9QCYs-48" value="" style="rounded=0;whiteSpace=wrap;html=1;fillColor=none;strokeColor=none;flipH=0;rotation=90;" parent="1" vertex="1">
          <mxGeometry x="193" y="561.5" width="10" height="50" as="geometry" />
        </mxCell>
        <mxCell id="MFnoaFZUkDLFj2D9QCYs-49" value="" style="endArrow=none;dashed=1;html=1;dashPattern=1 3;strokeWidth=2;rounded=0;entryX=0.5;entryY=0;entryDx=0;entryDy=0;exitX=0.5;exitY=1;exitDx=0;exitDy=0;" parent="1" source="MFnoaFZUkDLFj2D9QCYs-48" target="MFnoaFZUkDLFj2D9QCYs-48" edge="1">
          <mxGeometry width="50" height="50" relative="1" as="geometry">
            <mxPoint x="182" y="755" as="sourcePoint" />
            <mxPoint x="232" y="705" as="targetPoint" />
          </mxGeometry>
        </mxCell>
        <mxCell id="MFnoaFZUkDLFj2D9QCYs-50" value="" style="endArrow=none;html=1;rounded=0;entryX=0;entryY=0.5;entryDx=0;entryDy=0;entryPerimeter=0;exitX=0.5;exitY=0;exitDx=0;exitDy=0;strokeWidth=2;" parent="1" source="MFnoaFZUkDLFj2D9QCYs-48" target="MFnoaFZUkDLFj2D9QCYs-32" edge="1">
          <mxGeometry width="50" height="50" relative="1" as="geometry">
            <mxPoint x="228" y="390" as="sourcePoint" />
            <mxPoint x="278" y="340" as="targetPoint" />
          </mxGeometry>
        </mxCell>
        <mxCell id="MFnoaFZUkDLFj2D9QCYs-51" value="" style="endArrow=none;html=1;rounded=0;entryX=0.5;entryY=1;entryDx=0;entryDy=0;exitX=1;exitY=0.5;exitDx=0;exitDy=0;exitPerimeter=0;strokeWidth=2;" parent="1" source="MFnoaFZUkDLFj2D9QCYs-24" target="MFnoaFZUkDLFj2D9QCYs-48" edge="1">
          <mxGeometry width="50" height="50" relative="1" as="geometry">
            <mxPoint x="270" y="365" as="sourcePoint" />
            <mxPoint x="270" y="351" as="targetPoint" />
          </mxGeometry>
        </mxCell>
        <mxCell id="MFnoaFZUkDLFj2D9QCYs-52" value="" style="pointerEvents=1;verticalLabelPosition=bottom;shadow=0;dashed=0;align=center;html=1;verticalAlign=top;shape=mxgraph.electrical.miscellaneous.fuse_2;aspect=fixed;strokeWidth=2;fillColor=none;" parent="1" vertex="1">
          <mxGeometry x="611" y="579.5" width="70" height="14" as="geometry" />
        </mxCell>
        <mxCell id="MFnoaFZUkDLFj2D9QCYs-54" value="A" style="verticalLabelPosition=middle;shadow=0;dashed=0;align=center;html=1;verticalAlign=middle;strokeWidth=1;shape=ellipse;aspect=fixed;fontSize=20;fillColor=#d0cee2;strokeColor=#56517e;" parent="1" vertex="1">
          <mxGeometry x="495" y="700" width="40" height="40" as="geometry" />
        </mxCell>
        <mxCell id="MFnoaFZUkDLFj2D9QCYs-55" value="V" style="verticalLabelPosition=middle;shadow=0;dashed=0;align=center;html=1;verticalAlign=middle;strokeWidth=1;shape=ellipse;aspect=fixed;fontSize=20;fillColor=#fad9d5;strokeColor=#ae4132;" parent="1" vertex="1">
          <mxGeometry x="561" y="566.5" width="40" height="40" as="geometry" />
        </mxCell>
        <mxCell id="MFnoaFZUkDLFj2D9QCYs-58" value="" style="group;aspect=fixed;flipH=1;rotation=90;" parent="1" vertex="1" connectable="0">
          <mxGeometry x="451" y="520" width="44" height="132" as="geometry" />
        </mxCell>
        <mxCell id="MFnoaFZUkDLFj2D9QCYs-59" value="" style="rounded=1;whiteSpace=wrap;html=1;fillColor=#fff2cc;strokeColor=#d6b656;flipV=1;rotation=90;" parent="MFnoaFZUkDLFj2D9QCYs-58" vertex="1">
          <mxGeometry width="44" height="132" as="geometry" />
        </mxCell>
        <mxCell id="MFnoaFZUkDLFj2D9QCYs-60" value="" style="verticalLabelPosition=bottom;shadow=0;dashed=0;align=center;fillColor=strokeColor;html=1;verticalAlign=top;strokeWidth=2;shape=mxgraph.electrical.miscellaneous.monocell_battery;rotation=0;flipV=1;" parent="MFnoaFZUkDLFj2D9QCYs-58" vertex="1">
          <mxGeometry x="27" y="50" width="55.00000000000001" height="33" as="geometry" />
        </mxCell>
        <mxCell id="MFnoaFZUkDLFj2D9QCYs-61" value="" style="verticalLabelPosition=bottom;shadow=0;dashed=0;align=center;fillColor=strokeColor;html=1;verticalAlign=top;strokeWidth=2;shape=mxgraph.electrical.miscellaneous.monocell_battery;rotation=0;flipV=1;" parent="MFnoaFZUkDLFj2D9QCYs-58" vertex="1">
          <mxGeometry x="-6" y="50" width="55.00000000000001" height="33" as="geometry" />
        </mxCell>
        <mxCell id="MFnoaFZUkDLFj2D9QCYs-62" value="" style="verticalLabelPosition=bottom;shadow=0;dashed=0;align=center;fillColor=strokeColor;html=1;verticalAlign=top;strokeWidth=2;shape=mxgraph.electrical.miscellaneous.monocell_battery;rotation=0;flipV=1;" parent="MFnoaFZUkDLFj2D9QCYs-58" vertex="1">
          <mxGeometry x="-38" y="50" width="55.00000000000001" height="33" as="geometry" />
        </mxCell>
        <mxCell id="MFnoaFZUkDLFj2D9QCYs-39" value="" style="endArrow=none;html=1;rounded=0;entryX=0;entryY=0.5;entryDx=0;entryDy=0;exitX=1;exitY=0.5;exitDx=0;exitDy=0;exitPerimeter=0;entryPerimeter=0;strokeWidth=2;" parent="1" source="MFnoaFZUkDLFj2D9QCYs-30" target="MFnoaFZUkDLFj2D9QCYs-62" edge="1">
          <mxGeometry width="50" height="50" relative="1" as="geometry">
            <mxPoint x="178" y="260" as="sourcePoint" />
            <mxPoint x="412.9999999999999" y="586.5" as="targetPoint" />
          </mxGeometry>
        </mxCell>
        <mxCell id="MFnoaFZUkDLFj2D9QCYs-40" value="" style="endArrow=none;html=1;rounded=0;entryX=0;entryY=0.5;entryDx=0;entryDy=0;edgeStyle=orthogonalEdgeStyle;exitX=1;exitY=0.5;exitDx=0;exitDy=0;exitPerimeter=0;strokeWidth=2;" parent="1" source="MFnoaFZUkDLFj2D9QCYs-60" target="MFnoaFZUkDLFj2D9QCYs-55" edge="1">
          <mxGeometry width="50" height="50" relative="1" as="geometry">
            <mxPoint x="539.0000000000001" y="586.0000000000002" as="sourcePoint" />
            <mxPoint x="398" y="100" as="targetPoint" />
          </mxGeometry>
        </mxCell>
        <mxCell id="MFnoaFZUkDLFj2D9QCYs-65" value="" style="endArrow=none;html=1;rounded=0;entryX=0;entryY=0.5;entryDx=0;entryDy=0;entryPerimeter=0;exitX=1;exitY=0.5;exitDx=0;exitDy=0;strokeWidth=2;" parent="1" source="MFnoaFZUkDLFj2D9QCYs-55" target="MFnoaFZUkDLFj2D9QCYs-52" edge="1">
          <mxGeometry width="50" height="50" relative="1" as="geometry">
            <mxPoint x="481" y="600" as="sourcePoint" />
            <mxPoint x="531" y="550" as="targetPoint" />
          </mxGeometry>
        </mxCell>
        <mxCell id="MFnoaFZUkDLFj2D9QCYs-68" value="V" style="verticalLabelPosition=middle;shadow=0;dashed=0;align=center;html=1;verticalAlign=middle;strokeWidth=1;shape=ellipse;aspect=fixed;fontSize=20;fillColor=#fad9d5;strokeColor=#ae4132;" parent="1" vertex="1">
          <mxGeometry x="691" y="566.5" width="40" height="40" as="geometry" />
        </mxCell>
        <mxCell id="MFnoaFZUkDLFj2D9QCYs-69" value="" style="endArrow=none;html=1;rounded=0;entryX=0;entryY=0.5;entryDx=0;entryDy=0;exitX=1;exitY=0.5;exitDx=0;exitDy=0;exitPerimeter=0;strokeWidth=2;" parent="1" source="MFnoaFZUkDLFj2D9QCYs-52" target="MFnoaFZUkDLFj2D9QCYs-68" edge="1">
          <mxGeometry width="50" height="50" relative="1" as="geometry">
            <mxPoint x="611" y="597" as="sourcePoint" />
            <mxPoint x="621" y="597" as="targetPoint" />
          </mxGeometry>
        </mxCell>
        <mxCell id="MFnoaFZUkDLFj2D9QCYs-70" value="" style="endArrow=none;html=1;rounded=0;entryX=0;entryY=0.5;entryDx=0;entryDy=0;exitX=1;exitY=0.5;exitDx=0;exitDy=0;strokeWidth=2;strokeColor=#0000FF;" parent="1" source="MFnoaFZUkDLFj2D9QCYs-7" target="MFnoaFZUkDLFj2D9QCYs-10" edge="1">
          <mxGeometry width="50" height="50" relative="1" as="geometry">
            <mxPoint x="220" y="320" as="sourcePoint" />
            <mxPoint x="270" y="270" as="targetPoint" />
          </mxGeometry>
        </mxCell>
        <mxCell id="aofLy9jKP6S8HGss7yMc-10" value="" style="group" parent="1" vertex="1" connectable="0">
          <mxGeometry x="591" y="490" width="110" height="60" as="geometry" />
        </mxCell>
        <mxCell id="aofLy9jKP6S8HGss7yMc-8" value="&amp;nbsp; Voltage&lt;div&gt;&amp;nbsp; Sensor&lt;/div&gt;" style="rounded=1;whiteSpace=wrap;html=1;rotation=0;align=left;fillColor=#fad9d5;strokeColor=#ae4132;fontSize=13;flipV=0;flipH=1;" parent="aofLy9jKP6S8HGss7yMc-10" vertex="1">
          <mxGeometry width="110" height="60" as="geometry" />
        </mxCell>
        <mxCell id="aofLy9jKP6S8HGss7yMc-9" value="" style="pointerEvents=1;shadow=0;dashed=0;html=1;strokeColor=none;fillColor=#000000;labelPosition=center;verticalLabelPosition=bottom;verticalAlign=top;align=center;outlineConnect=0;shape=mxgraph.veeam.cpu;rotation=0;" parent="aofLy9jKP6S8HGss7yMc-10" vertex="1">
          <mxGeometry x="60" y="8" width="44.8" height="44.8" as="geometry" />
        </mxCell>
        <mxCell id="aofLy9jKP6S8HGss7yMc-13" value="" style="endArrow=none;html=1;rounded=0;exitX=1;exitY=0.5;exitDx=0;exitDy=0;entryX=0;entryY=0.75;entryDx=0;entryDy=0;edgeStyle=orthogonalEdgeStyle;strokeWidth=2;strokeColor=#0000FF;" parent="1" source="aofLy9jKP6S8HGss7yMc-8" target="MFnoaFZUkDLFj2D9QCYs-10" edge="1">
          <mxGeometry width="50" height="50" relative="1" as="geometry">
            <mxPoint x="780" y="606.5" as="sourcePoint" />
            <mxPoint x="889" y="656.5" as="targetPoint" />
            <Array as="points">
              <mxPoint x="790" y="520" />
              <mxPoint x="790" y="500" />
            </Array>
          </mxGeometry>
        </mxCell>
        <mxCell id="aofLy9jKP6S8HGss7yMc-15" value="" style="group" parent="1" vertex="1" connectable="0">
          <mxGeometry x="460" y="620" width="110" height="60" as="geometry" />
        </mxCell>
        <mxCell id="aofLy9jKP6S8HGss7yMc-16" value="&amp;nbsp; Current&lt;div&gt;&amp;nbsp; Sensor&lt;/div&gt;" style="rounded=1;whiteSpace=wrap;html=1;rotation=0;align=left;fillColor=#d0cee2;strokeColor=#56517e;fontSize=13;flipV=0;flipH=1;" parent="aofLy9jKP6S8HGss7yMc-15" vertex="1">
          <mxGeometry width="110" height="60" as="geometry" />
        </mxCell>
        <mxCell id="aofLy9jKP6S8HGss7yMc-17" value="" style="pointerEvents=1;shadow=0;dashed=0;html=1;strokeColor=none;fillColor=#000000;labelPosition=center;verticalLabelPosition=bottom;verticalAlign=top;align=center;outlineConnect=0;shape=mxgraph.veeam.cpu;rotation=0;" parent="aofLy9jKP6S8HGss7yMc-15" vertex="1">
          <mxGeometry x="60" y="8" width="44.8" height="44.8" as="geometry" />
        </mxCell>
        <mxCell id="aofLy9jKP6S8HGss7yMc-25" value="" style="pointerEvents=1;verticalLabelPosition=bottom;shadow=0;dashed=0;align=center;html=1;verticalAlign=top;shape=mxgraph.electrical.resistors.resistor_1;aspect=fixed;strokeWidth=2;fillColor=none;" parent="1" vertex="1">
          <mxGeometry x="868" y="579.5" width="70" height="14" as="geometry" />
        </mxCell>
        <mxCell id="aofLy9jKP6S8HGss7yMc-48" value="" style="endArrow=none;html=1;rounded=0;entryX=0;entryY=0.8;entryDx=0;entryDy=0;exitX=1;exitY=0.5;exitDx=0;exitDy=0;exitPerimeter=0;edgeStyle=orthogonalEdgeStyle;strokeWidth=2;" parent="1" source="aofLy9jKP6S8HGss7yMc-25" target="aofLy9jKP6S8HGss7yMc-46" edge="1">
          <mxGeometry width="50" height="50" relative="1" as="geometry">
            <mxPoint x="908" y="640" as="sourcePoint" />
            <mxPoint x="958" y="590" as="targetPoint" />
            <Array as="points">
              <mxPoint x="948" y="587" />
            </Array>
          </mxGeometry>
        </mxCell>
        <mxCell id="aofLy9jKP6S8HGss7yMc-52" value="" style="endArrow=none;html=1;rounded=0;entryX=0.548;entryY=0.335;entryDx=0;entryDy=0;exitX=0.25;exitY=1;exitDx=0;exitDy=0;edgeStyle=orthogonalEdgeStyle;curved=0;strokeColor=#FF8324;entryPerimeter=0;strokeWidth=2;jumpStyle=arc;" parent="1" source="MFnoaFZUkDLFj2D9QCYs-10" target="aofLy9jKP6S8HGss7yMc-46" edge="1">
          <mxGeometry width="50" height="50" relative="1" as="geometry">
            <mxPoint x="789" y="597" as="sourcePoint" />
            <mxPoint x="990" y="573" as="targetPoint" />
            <Array as="points">
              <mxPoint x="993" y="583" />
              <mxPoint x="993" y="583" />
            </Array>
          </mxGeometry>
        </mxCell>
        <mxCell id="aofLy9jKP6S8HGss7yMc-57" value="V" style="verticalLabelPosition=middle;shadow=0;dashed=1;align=center;html=1;verticalAlign=middle;strokeWidth=2;shape=ellipse;aspect=fixed;fontSize=20;fillColor=#fad9d5;strokeColor=#ae4132;fillStyle=solid;dashPattern=1 1;" parent="1" vertex="1">
          <mxGeometry x="1068" y="566.5" width="40" height="40" as="geometry" />
        </mxCell>
        <mxCell id="aofLy9jKP6S8HGss7yMc-58" value="" style="endArrow=none;html=1;rounded=0;entryX=0;entryY=0.5;entryDx=0;entryDy=0;exitX=1;exitY=0.8;exitDx=0;exitDy=0;edgeStyle=orthogonalEdgeStyle;strokeWidth=2;" parent="1" source="aofLy9jKP6S8HGss7yMc-46" target="aofLy9jKP6S8HGss7yMc-57" edge="1">
          <mxGeometry width="50" height="50" relative="1" as="geometry">
            <mxPoint x="1024.23" y="592.062" as="sourcePoint" />
            <mxPoint x="1038" y="570" as="targetPoint" />
            <Array as="points">
              <mxPoint x="1048" y="592" />
              <mxPoint x="1048" y="586" />
            </Array>
          </mxGeometry>
        </mxCell>
        <mxCell id="aofLy9jKP6S8HGss7yMc-46" value="" style="html=1;shape=mxgraph.electrical.electro-mechanical.singleSwitch;aspect=fixed;elSwitchState=off;strokeWidth=2;" parent="1" vertex="1">
          <mxGeometry x="955" y="577" width="70" height="18.67" as="geometry" />
        </mxCell>
        <mxCell id="aofLy9jKP6S8HGss7yMc-60" value="" style="endArrow=none;html=1;rounded=0;entryX=0;entryY=0.5;entryDx=0;entryDy=0;exitX=1;exitY=0.8;exitDx=0;exitDy=0;edgeStyle=orthogonalEdgeStyle;strokeWidth=2;" parent="1" source="aofLy9jKP6S8HGss7yMc-59" target="aofLy9jKP6S8HGss7yMc-57" edge="1">
          <mxGeometry width="50" height="50" relative="1" as="geometry">
            <mxPoint x="1035" y="602" as="sourcePoint" />
            <mxPoint x="1078" y="597" as="targetPoint" />
            <Array as="points">
              <mxPoint x="1048" y="641" />
              <mxPoint x="1048" y="587" />
            </Array>
          </mxGeometry>
        </mxCell>
        <mxCell id="aofLy9jKP6S8HGss7yMc-63" value="" style="endArrow=none;html=1;rounded=0;entryX=0.546;entryY=0.335;entryDx=0;entryDy=0;edgeStyle=orthogonalEdgeStyle;curved=0;strokeColor=#FF8324;entryPerimeter=0;strokeWidth=2;jumpStyle=arc;exitX=0.25;exitY=1;exitDx=0;exitDy=0;" parent="1" source="MFnoaFZUkDLFj2D9QCYs-10" target="aofLy9jKP6S8HGss7yMc-59" edge="1">
          <mxGeometry width="50" height="50" relative="1" as="geometry">
            <mxPoint x="1040" y="530" as="sourcePoint" />
            <mxPoint x="991.7299999999999" y="632.49716" as="targetPoint" />
            <Array as="points">
              <mxPoint x="993" y="560" />
              <mxPoint x="939" y="560" />
              <mxPoint x="939" y="620" />
              <mxPoint x="993" y="620" />
              <mxPoint x="993" y="632" />
            </Array>
          </mxGeometry>
        </mxCell>
        <mxCell id="aofLy9jKP6S8HGss7yMc-59" value="" style="html=1;shape=mxgraph.electrical.electro-mechanical.singleSwitch;aspect=fixed;elSwitchState=off;strokeWidth=2;" parent="1" vertex="1">
          <mxGeometry x="955" y="626" width="70" height="18.67" as="geometry" />
        </mxCell>
        <mxCell id="aofLy9jKP6S8HGss7yMc-68" value="" style="endArrow=none;html=1;rounded=0;entryX=0.5;entryY=1;entryDx=0;entryDy=0;exitX=0.5;exitY=0;exitDx=0;exitDy=0;edgeStyle=orthogonalEdgeStyle;fillColor=#d0cee2;strokeColor=#56517e;strokeWidth=2;" parent="1" source="MFnoaFZUkDLFj2D9QCYs-54" target="aofLy9jKP6S8HGss7yMc-16" edge="1">
          <mxGeometry width="50" height="50" relative="1" as="geometry">
            <mxPoint x="610" y="790" as="sourcePoint" />
            <mxPoint x="660" y="740" as="targetPoint" />
          </mxGeometry>
        </mxCell>
        <mxCell id="aofLy9jKP6S8HGss7yMc-69" value="" style="endArrow=none;html=1;rounded=0;entryX=0.25;entryY=1;entryDx=0;entryDy=0;exitX=0.5;exitY=0;exitDx=0;exitDy=0;edgeStyle=orthogonalEdgeStyle;fillColor=#fad9d5;strokeColor=#ae4132;strokeWidth=2;" parent="1" source="MFnoaFZUkDLFj2D9QCYs-55" target="aofLy9jKP6S8HGss7yMc-8" edge="1">
          <mxGeometry width="50" height="50" relative="1" as="geometry">
            <mxPoint x="520" y="610" as="sourcePoint" />
            <mxPoint x="570" y="560" as="targetPoint" />
            <Array as="points">
              <mxPoint x="581" y="560" />
              <mxPoint x="619" y="560" />
            </Array>
          </mxGeometry>
        </mxCell>
        <mxCell id="aofLy9jKP6S8HGss7yMc-70" value="" style="endArrow=none;html=1;rounded=0;entryX=0.75;entryY=1;entryDx=0;entryDy=0;exitX=0.5;exitY=0;exitDx=0;exitDy=0;edgeStyle=orthogonalEdgeStyle;fillColor=#fad9d5;strokeColor=#ae4132;strokeWidth=2;" parent="1" source="MFnoaFZUkDLFj2D9QCYs-68" target="aofLy9jKP6S8HGss7yMc-8" edge="1">
          <mxGeometry width="50" height="50" relative="1" as="geometry">
            <mxPoint x="591" y="577" as="sourcePoint" />
            <mxPoint x="629" y="560" as="targetPoint" />
            <Array as="points">
              <mxPoint x="711" y="560" />
              <mxPoint x="674" y="560" />
            </Array>
          </mxGeometry>
        </mxCell>
        <mxCell id="aofLy9jKP6S8HGss7yMc-72" value="" style="pointerEvents=1;verticalLabelPosition=bottom;shadow=0;dashed=0;align=center;html=1;verticalAlign=top;shape=mxgraph.electrical.signal_sources.signal_ground;strokeWidth=2;aspect=fixed;fillColor=none;rotation=90;" parent="1" vertex="1">
          <mxGeometry x="641" y="674.67" width="30" height="20" as="geometry" />
        </mxCell>
        <mxCell id="aofLy9jKP6S8HGss7yMc-73" value="" style="endArrow=none;html=1;rounded=0;exitX=0.5;exitY=0;exitDx=0;exitDy=0;exitPerimeter=0;entryX=0;entryY=0.75;entryDx=0;entryDy=0;edgeStyle=orthogonalEdgeStyle;strokeWidth=2;" parent="1" source="aofLy9jKP6S8HGss7yMc-72" target="aofLy9jKP6S8HGss7yMc-2" edge="1">
          <mxGeometry width="50" height="50" relative="1" as="geometry">
            <mxPoint x="560" y="440" as="sourcePoint" />
            <mxPoint x="610" y="390" as="targetPoint" />
          </mxGeometry>
        </mxCell>
        <mxCell id="aofLy9jKP6S8HGss7yMc-74" value="" style="endArrow=none;html=1;rounded=0;entryX=0.75;entryY=1;entryDx=0;entryDy=0;fillColor=#d0cee2;strokeColor=#56517e;strokeWidth=2;" parent="1" target="aofLy9jKP6S8HGss7yMc-2" edge="1">
          <mxGeometry width="50" height="50" relative="1" as="geometry">
            <mxPoint x="753.5000000000002" y="720" as="sourcePoint" />
            <mxPoint x="717.5000000000002" y="740" as="targetPoint" />
          </mxGeometry>
        </mxCell>
        <mxCell id="aofLy9jKP6S8HGss7yMc-75" value="" style="group" parent="1" vertex="1" connectable="0">
          <mxGeometry x="671" y="640" width="110" height="60" as="geometry" />
        </mxCell>
        <mxCell id="aofLy9jKP6S8HGss7yMc-2" value="&amp;nbsp; &amp;nbsp; IMD" style="rounded=1;whiteSpace=wrap;html=1;rotation=0;align=left;fillColor=#e1d5e7;strokeColor=#9673a6;fontSize=13;flipV=0;flipH=1;" parent="aofLy9jKP6S8HGss7yMc-75" vertex="1">
          <mxGeometry width="110" height="60" as="geometry" />
        </mxCell>
        <mxCell id="aofLy9jKP6S8HGss7yMc-3" value="" style="pointerEvents=1;shadow=0;dashed=0;html=1;strokeColor=none;fillColor=#000000;labelPosition=center;verticalLabelPosition=bottom;verticalAlign=top;align=center;outlineConnect=0;shape=mxgraph.veeam.cpu;rotation=0;" parent="aofLy9jKP6S8HGss7yMc-75" vertex="1">
          <mxGeometry x="50" y="8" width="44.8" height="44.8" as="geometry" />
        </mxCell>
        <mxCell id="aofLy9jKP6S8HGss7yMc-77" value="" style="endArrow=none;html=1;rounded=0;exitX=1;exitY=0.5;exitDx=0;exitDy=0;entryX=0;entryY=0.25;entryDx=0;entryDy=0;edgeStyle=orthogonalEdgeStyle;strokeWidth=2;" parent="1" source="aofLy9jKP6S8HGss7yMc-57" target="aofLy9jKP6S8HGss7yMc-110" edge="1">
          <mxGeometry width="50" height="50" relative="1" as="geometry">
            <mxPoint x="1128" y="660" as="sourcePoint" />
            <mxPoint x="1188" y="600" as="targetPoint" />
            <Array as="points">
              <mxPoint x="1148" y="586" />
              <mxPoint x="1148" y="602" />
            </Array>
          </mxGeometry>
        </mxCell>
        <mxCell id="aofLy9jKP6S8HGss7yMc-78" value="" style="endArrow=none;html=1;rounded=0;exitX=1;exitY=0.8;exitDx=0;exitDy=0;entryX=0;entryY=0.75;entryDx=0;entryDy=0;edgeStyle=orthogonalEdgeStyle;strokeWidth=2;" parent="1" source="aofLy9jKP6S8HGss7yMc-51" target="aofLy9jKP6S8HGss7yMc-110" edge="1">
          <mxGeometry width="50" height="50" relative="1" as="geometry">
            <mxPoint x="1118" y="597" as="sourcePoint" />
            <mxPoint x="1188" y="635" as="targetPoint" />
            <Array as="points">
              <mxPoint x="1150" y="720" />
              <mxPoint x="1150" y="652" />
            </Array>
          </mxGeometry>
        </mxCell>
        <mxCell id="aofLy9jKP6S8HGss7yMc-88" value="&lt;span style=&quot;text-wrap: nowrap;&quot;&gt;Main Contactor HV-&lt;/span&gt;" style="text;html=1;align=center;verticalAlign=middle;whiteSpace=wrap;rounded=0;" parent="1" vertex="1">
          <mxGeometry x="970" y="723.67" width="60" height="30" as="geometry" />
        </mxCell>
        <mxCell id="aofLy9jKP6S8HGss7yMc-90" value="&lt;span style=&quot;text-wrap: nowrap;&quot;&gt;Main Contactor HV+&lt;/span&gt;" style="text;html=1;align=center;verticalAlign=middle;whiteSpace=wrap;rounded=0;" parent="1" vertex="1">
          <mxGeometry x="970" y="644.67" width="60" height="30" as="geometry" />
        </mxCell>
        <mxCell id="aofLy9jKP6S8HGss7yMc-91" value="&lt;span style=&quot;text-wrap: nowrap;&quot;&gt;Precharge&lt;/span&gt;&lt;div&gt;&lt;span style=&quot;text-wrap: nowrap;&quot;&gt;Resistor&lt;/span&gt;&lt;/div&gt;" style="text;html=1;align=center;verticalAlign=middle;whiteSpace=wrap;rounded=0;" parent="1" vertex="1">
          <mxGeometry x="873" y="547" width="60" height="30" as="geometry" />
        </mxCell>
        <mxCell id="aofLy9jKP6S8HGss7yMc-92" value="&lt;span style=&quot;text-wrap: nowrap;&quot;&gt;Precharge&lt;/span&gt;&lt;div&gt;&lt;span style=&quot;text-wrap: nowrap;&quot;&gt;Contactor&lt;/span&gt;&lt;/div&gt;" style="text;html=1;align=center;verticalAlign=middle;whiteSpace=wrap;rounded=0;" parent="1" vertex="1">
          <mxGeometry x="1000" y="547" width="60" height="30" as="geometry" />
        </mxCell>
        <mxCell id="aofLy9jKP6S8HGss7yMc-11" value="" style="endArrow=none;html=1;rounded=0;exitX=1;exitY=0.5;exitDx=0;exitDy=0;entryX=0;entryY=0.75;entryDx=0;entryDy=0;edgeStyle=orthogonalEdgeStyle;strokeWidth=2;jumpStyle=arc;strokeColor=#0000FF;" parent="1" source="aofLy9jKP6S8HGss7yMc-2" target="MFnoaFZUkDLFj2D9QCYs-10" edge="1">
          <mxGeometry width="50" height="50" relative="1" as="geometry">
            <mxPoint x="720" y="380" as="sourcePoint" />
            <mxPoint x="770" y="330" as="targetPoint" />
            <Array as="points">
              <mxPoint x="790" y="670" />
              <mxPoint x="790" y="500" />
            </Array>
          </mxGeometry>
        </mxCell>
        <mxCell id="aofLy9jKP6S8HGss7yMc-14" value="" style="endArrow=none;html=1;rounded=0;exitX=1;exitY=0.5;exitDx=0;exitDy=0;entryX=0;entryY=0.75;entryDx=0;entryDy=0;edgeStyle=orthogonalEdgeStyle;strokeWidth=2;jumpStyle=arc;strokeColor=#0000FF;" parent="1" source="aofLy9jKP6S8HGss7yMc-16" target="MFnoaFZUkDLFj2D9QCYs-10" edge="1">
          <mxGeometry width="50" height="50" relative="1" as="geometry">
            <mxPoint x="710" y="650" as="sourcePoint" />
            <mxPoint x="810" y="510" as="targetPoint" />
            <Array as="points">
              <mxPoint x="610" y="650" />
              <mxPoint x="610" y="610" />
              <mxPoint x="790" y="610" />
              <mxPoint x="790" y="500" />
            </Array>
          </mxGeometry>
        </mxCell>
        <mxCell id="aofLy9jKP6S8HGss7yMc-61" value="" style="endArrow=none;html=1;rounded=0;entryX=0;entryY=0.8;entryDx=0;entryDy=0;exitX=1;exitY=0.5;exitDx=0;exitDy=0;edgeStyle=orthogonalEdgeStyle;strokeWidth=2;" parent="1" source="MFnoaFZUkDLFj2D9QCYs-68" target="aofLy9jKP6S8HGss7yMc-59" edge="1">
          <mxGeometry width="50" height="50" relative="1" as="geometry">
            <mxPoint x="900" y="597" as="sourcePoint" />
            <mxPoint x="917" y="602" as="targetPoint" />
            <Array as="points">
              <mxPoint x="810" y="587" />
              <mxPoint x="810" y="641" />
              <mxPoint x="907" y="641" />
            </Array>
          </mxGeometry>
        </mxCell>
        <mxCell id="MFnoaFZUkDLFj2D9QCYs-46" value="&lt;font style=&quot;font-size: 13px;&quot;&gt;&amp;nbsp; BMS-Slave&lt;/font&gt;&lt;div&gt;&lt;font style=&quot;font-size: 13px;&quot;&gt;&amp;nbsp; &amp;nbsp; (U, T, X)&lt;/font&gt;&lt;/div&gt;" style="rounded=1;whiteSpace=wrap;html=1;rotation=0;align=left;fillColor=#d5e8d4;strokeColor=#82b366;flipH=1;" parent="1" vertex="1">
          <mxGeometry x="31" y="450" width="130" height="60" as="geometry" />
        </mxCell>
        <mxCell id="MFnoaFZUkDLFj2D9QCYs-47" value="" style="pointerEvents=1;shadow=0;dashed=0;html=1;strokeColor=none;fillColor=#000000;labelPosition=center;verticalLabelPosition=bottom;verticalAlign=top;align=center;outlineConnect=0;shape=mxgraph.veeam.cpu;rotation=0;" parent="1" vertex="1">
          <mxGeometry x="111" y="458" width="44.8" height="44.8" as="geometry" />
        </mxCell>
        <mxCell id="aofLy9jKP6S8HGss7yMc-28" value="" style="endArrow=none;html=1;rounded=0;exitX=1;exitY=0.5;exitDx=0;exitDy=0;entryX=0;entryY=0.8;entryDx=0;entryDy=0;edgeStyle=orthogonalEdgeStyle;strokeWidth=2;" parent="1" source="MFnoaFZUkDLFj2D9QCYs-54" target="aofLy9jKP6S8HGss7yMc-51" edge="1">
          <mxGeometry width="50" height="50" relative="1" as="geometry">
            <mxPoint x="800" y="640" as="sourcePoint" />
            <mxPoint x="920" y="666.9359999999999" as="targetPoint" />
            <Array as="points">
              <mxPoint x="955" y="720" />
            </Array>
          </mxGeometry>
        </mxCell>
        <mxCell id="aofLy9jKP6S8HGss7yMc-56" value="" style="endArrow=none;html=1;rounded=0;exitX=0.533;exitY=0.348;exitDx=0;exitDy=0;edgeStyle=orthogonalEdgeStyle;strokeColor=#FF8324;exitPerimeter=0;strokeWidth=2;jumpStyle=arc;entryX=0.25;entryY=1;entryDx=0;entryDy=0;" parent="1" source="aofLy9jKP6S8HGss7yMc-51" target="MFnoaFZUkDLFj2D9QCYs-10" edge="1">
          <mxGeometry width="50" height="50" relative="1" as="geometry">
            <mxPoint x="990" y="670" as="sourcePoint" />
            <mxPoint x="1010" y="540" as="targetPoint" />
            <Array as="points">
              <mxPoint x="992" y="680" />
              <mxPoint x="939" y="680" />
              <mxPoint x="939" y="560" />
              <mxPoint x="993" y="560" />
            </Array>
          </mxGeometry>
        </mxCell>
        <mxCell id="aofLy9jKP6S8HGss7yMc-51" value="&lt;div&gt;&lt;br&gt;&lt;/div&gt;" style="html=1;shape=mxgraph.electrical.electro-mechanical.singleSwitch;aspect=fixed;elSwitchState=off;strokeWidth=2;verticalAlign=bottom;spacingLeft=0;horizontal=1;" parent="1" vertex="1">
          <mxGeometry x="955" y="705" width="70" height="18.67" as="geometry" />
        </mxCell>
        <mxCell id="MFnoaFZUkDLFj2D9QCYs-9" value="" style="group;aspect=fixed;" parent="1" vertex="1" connectable="0">
          <mxGeometry x="948" y="440" width="180" height="80" as="geometry" />
        </mxCell>
        <mxCell id="MFnoaFZUkDLFj2D9QCYs-10" value="&lt;font&gt;&amp;nbsp; &amp;nbsp; BMS Master&lt;/font&gt;" style="rounded=1;whiteSpace=wrap;html=1;align=left;fillColor=#dae8fc;strokeColor=#6c8ebf;fontSize=14;" parent="MFnoaFZUkDLFj2D9QCYs-9" vertex="1">
          <mxGeometry width="180" height="80" as="geometry" />
        </mxCell>
        <mxCell id="MFnoaFZUkDLFj2D9QCYs-11" value="" style="pointerEvents=1;shadow=0;dashed=0;html=1;strokeColor=none;fillColor=#000000;labelPosition=center;verticalLabelPosition=bottom;verticalAlign=top;align=center;outlineConnect=0;shape=mxgraph.veeam.cpu;" parent="MFnoaFZUkDLFj2D9QCYs-9" vertex="1">
          <mxGeometry x="110" y="10" width="60" height="60" as="geometry" />
        </mxCell>
        <mxCell id="aofLy9jKP6S8HGss7yMc-111" value="" style="endArrow=none;html=1;rounded=0;entryX=1;entryY=0;entryDx=0;entryDy=0;exitX=0;exitY=1;exitDx=0;exitDy=0;strokeWidth=2;" parent="1" source="aofLy9jKP6S8HGss7yMc-110" target="aofLy9jKP6S8HGss7yMc-110" edge="1">
          <mxGeometry width="50" height="50" relative="1" as="geometry">
            <mxPoint x="1400" y="660" as="sourcePoint" />
            <mxPoint x="1450" y="610" as="targetPoint" />
          </mxGeometry>
        </mxCell>
        <mxCell id="aofLy9jKP6S8HGss7yMc-113" value="CAN" style="endArrow=none;html=1;rounded=0;entryX=0;entryY=0.5;entryDx=0;entryDy=0;exitX=1;exitY=0.5;exitDx=0;exitDy=0;strokeWidth=2;strokeColor=#0000FF;verticalAlign=bottom;" parent="1" source="MFnoaFZUkDLFj2D9QCYs-10" target="aofLy9jKP6S8HGss7yMc-106" edge="1">
          <mxGeometry width="50" height="50" relative="1" as="geometry">
            <mxPoint x="1150" y="580" as="sourcePoint" />
            <mxPoint x="1200" y="530" as="targetPoint" />
          </mxGeometry>
        </mxCell>
        <mxCell id="aofLy9jKP6S8HGss7yMc-114" value="" style="endArrow=none;html=1;rounded=0;entryX=0.5;entryY=1;entryDx=0;entryDy=0;strokeWidth=2;strokeColor=#0000FF;verticalAlign=bottom;" parent="1" source="aofLy9jKP6S8HGss7yMc-110" target="aofLy9jKP6S8HGss7yMc-106" edge="1">
          <mxGeometry width="50" height="50" relative="1" as="geometry">
            <mxPoint x="1138" y="490" as="sourcePoint" />
            <mxPoint x="1340" y="490" as="targetPoint" />
          </mxGeometry>
        </mxCell>
        <mxCell id="aofLy9jKP6S8HGss7yMc-105" value="" style="group;aspect=fixed;fillColor=none;" parent="1" vertex="1" connectable="0">
          <mxGeometry x="1330" y="440" width="180" height="80" as="geometry" />
        </mxCell>
        <mxCell id="aofLy9jKP6S8HGss7yMc-106" value="&lt;font&gt;&amp;nbsp; Application&lt;/font&gt;&lt;div&gt;&lt;font&gt;&amp;nbsp; Controler&lt;/font&gt;&lt;/div&gt;" style="rounded=1;whiteSpace=wrap;html=1;align=left;fillColor=#e3c800;strokeColor=#B09500;fontSize=14;fontColor=#000000;" parent="aofLy9jKP6S8HGss7yMc-105" vertex="1">
          <mxGeometry width="180" height="80" as="geometry" />
        </mxCell>
        <mxCell id="aofLy9jKP6S8HGss7yMc-107" value="" style="pointerEvents=1;shadow=0;dashed=0;html=1;strokeColor=none;fillColor=#000000;labelPosition=center;verticalLabelPosition=bottom;verticalAlign=top;align=center;outlineConnect=0;shape=mxgraph.veeam.cpu;" parent="aofLy9jKP6S8HGss7yMc-105" vertex="1">
          <mxGeometry x="110" y="10" width="60" height="60" as="geometry" />
        </mxCell>
        <mxCell id="aofLy9jKP6S8HGss7yMc-110" value="" style="rounded=0;whiteSpace=wrap;html=1;fillColor=none;aspect=fixed;strokeWidth=2;" parent="1" vertex="1">
          <mxGeometry x="1370" y="577" width="100" height="100" as="geometry" />
        </mxCell>
      </root>
    </mxGraphModel>
  </diagram>
</mxfile>
